<mxfile host="app.diagrams.net" agent="Mozilla/5.0 (Windows NT 10.0; Win64; x64) AppleWebKit/537.36 (KHTML, like Gecko) Chrome/140.0.0.0 Safari/537.36" version="28.2.4">
  <diagram name="Página-1" id="YWYwoeP4mRuZ2OBto-2d">
    <mxGraphModel dx="1426" dy="912" grid="1" gridSize="10" guides="1" tooltips="1" connect="1" arrows="1" fold="1" page="1" pageScale="1" pageWidth="827" pageHeight="1169" background="#FAFFF8" math="0" shadow="1">
      <root>
        <mxCell id="0" />
        <mxCell id="1" parent="0" />
        <mxCell id="06Gke2DZnT_ywNwkVbvP-31" value="" style="edgeStyle=orthogonalEdgeStyle;rounded=0;orthogonalLoop=1;jettySize=auto;html=1;" edge="1" parent="1" source="ZH_kPXTmaQF38pL4gd3C-1" target="06Gke2DZnT_ywNwkVbvP-30">
          <mxGeometry relative="1" as="geometry" />
        </mxCell>
        <mxCell id="ZH_kPXTmaQF38pL4gd3C-1" value="Inicio" style="ellipse;whiteSpace=wrap;html=1;fillColor=#f8cecc;strokeColor=#b85450;strokeWidth=4;shadow=1;" parent="1" vertex="1">
          <mxGeometry x="580" y="380" width="120" height="80" as="geometry" />
        </mxCell>
        <mxCell id="06Gke2DZnT_ywNwkVbvP-42" value="" style="edgeStyle=orthogonalEdgeStyle;rounded=0;orthogonalLoop=1;jettySize=auto;html=1;" edge="1" parent="1" source="06Gke2DZnT_ywNwkVbvP-21" target="06Gke2DZnT_ywNwkVbvP-41">
          <mxGeometry relative="1" as="geometry" />
        </mxCell>
        <mxCell id="06Gke2DZnT_ywNwkVbvP-21" value="ESCREVER &quot;Quantos números queres somar?&quot;" style="shape=parallelogram;perimeter=parallelogramPerimeter;whiteSpace=wrap;html=1;fixedSize=1;fillColor=#dae8fc;strokeColor=#6c8ebf;strokeWidth=4;shadow=1;" vertex="1" parent="1">
          <mxGeometry x="50" y="360" width="210" height="120" as="geometry" />
        </mxCell>
        <mxCell id="06Gke2DZnT_ywNwkVbvP-32" value="" style="edgeStyle=orthogonalEdgeStyle;rounded=0;orthogonalLoop=1;jettySize=auto;html=1;" edge="1" parent="1" source="06Gke2DZnT_ywNwkVbvP-30" target="06Gke2DZnT_ywNwkVbvP-21">
          <mxGeometry relative="1" as="geometry" />
        </mxCell>
        <mxCell id="06Gke2DZnT_ywNwkVbvP-30" value="&lt;div&gt;NumTotal=0&lt;/div&gt;&lt;div&gt;Soma=0&lt;/div&gt;" style="whiteSpace=wrap;html=1;fillColor=#d5e8d4;strokeColor=#82b366;strokeWidth=4;shadow=1;" vertex="1" parent="1">
          <mxGeometry x="301.5" y="385" width="228.5" height="70" as="geometry" />
        </mxCell>
        <mxCell id="06Gke2DZnT_ywNwkVbvP-39" value="" style="edgeStyle=orthogonalEdgeStyle;rounded=0;orthogonalLoop=1;jettySize=auto;html=1;" edge="1" parent="1" source="06Gke2DZnT_ywNwkVbvP-35" target="06Gke2DZnT_ywNwkVbvP-38">
          <mxGeometry relative="1" as="geometry" />
        </mxCell>
        <mxCell id="06Gke2DZnT_ywNwkVbvP-35" value="NumTotal=NumTotal+Resposta" style="whiteSpace=wrap;html=1;fillColor=#d5e8d4;strokeColor=#82b366;strokeWidth=4;shadow=1;" vertex="1" parent="1">
          <mxGeometry x="40.75" y="600" width="228.5" height="59" as="geometry" />
        </mxCell>
        <mxCell id="06Gke2DZnT_ywNwkVbvP-45" value="" style="edgeStyle=orthogonalEdgeStyle;rounded=0;orthogonalLoop=1;jettySize=auto;html=1;" edge="1" parent="1" source="06Gke2DZnT_ywNwkVbvP-38" target="06Gke2DZnT_ywNwkVbvP-44">
          <mxGeometry relative="1" as="geometry" />
        </mxCell>
        <mxCell id="06Gke2DZnT_ywNwkVbvP-38" value="ESCREVER &quot;Queres somar qual agora?&quot;" style="shape=parallelogram;perimeter=parallelogramPerimeter;whiteSpace=wrap;html=1;fixedSize=1;fillColor=#dae8fc;strokeColor=#6c8ebf;strokeWidth=4;shadow=1;" vertex="1" parent="1">
          <mxGeometry x="10" y="700" width="290" height="108.5" as="geometry" />
        </mxCell>
        <mxCell id="06Gke2DZnT_ywNwkVbvP-43" value="" style="edgeStyle=orthogonalEdgeStyle;rounded=0;orthogonalLoop=1;jettySize=auto;html=1;" edge="1" parent="1" source="06Gke2DZnT_ywNwkVbvP-41" target="06Gke2DZnT_ywNwkVbvP-35">
          <mxGeometry relative="1" as="geometry" />
        </mxCell>
        <mxCell id="06Gke2DZnT_ywNwkVbvP-41" value="LER Resposta" style="shape=parallelogram;perimeter=parallelogramPerimeter;whiteSpace=wrap;html=1;fixedSize=1;fillColor=#e1d5e7;strokeColor=#9673a6;strokeWidth=4;shadow=1;" vertex="1" parent="1">
          <mxGeometry x="95" y="510" width="120" height="60" as="geometry" />
        </mxCell>
        <mxCell id="06Gke2DZnT_ywNwkVbvP-47" value="" style="edgeStyle=orthogonalEdgeStyle;rounded=0;orthogonalLoop=1;jettySize=auto;html=1;" edge="1" parent="1" source="06Gke2DZnT_ywNwkVbvP-44" target="06Gke2DZnT_ywNwkVbvP-46">
          <mxGeometry relative="1" as="geometry" />
        </mxCell>
        <mxCell id="06Gke2DZnT_ywNwkVbvP-44" value="LER Resposta" style="shape=parallelogram;perimeter=parallelogramPerimeter;whiteSpace=wrap;html=1;fixedSize=1;fillColor=#e1d5e7;strokeColor=#9673a6;strokeWidth=4;shadow=1;" vertex="1" parent="1">
          <mxGeometry x="15" y="840" width="280" height="60" as="geometry" />
        </mxCell>
        <mxCell id="06Gke2DZnT_ywNwkVbvP-49" value="" style="edgeStyle=orthogonalEdgeStyle;rounded=0;orthogonalLoop=1;jettySize=auto;html=1;" edge="1" parent="1" source="06Gke2DZnT_ywNwkVbvP-46" target="06Gke2DZnT_ywNwkVbvP-48">
          <mxGeometry relative="1" as="geometry" />
        </mxCell>
        <mxCell id="06Gke2DZnT_ywNwkVbvP-46" value="Soma=Soma+Resposta&lt;div&gt;NumTotal=NumTotal-1&lt;/div&gt;" style="whiteSpace=wrap;html=1;fillColor=#d5e8d4;strokeColor=#82b366;strokeWidth=4;shadow=1;" vertex="1" parent="1">
          <mxGeometry x="20" y="920" width="270" height="60" as="geometry" />
        </mxCell>
        <mxCell id="06Gke2DZnT_ywNwkVbvP-55" value="" style="edgeStyle=orthogonalEdgeStyle;rounded=0;orthogonalLoop=1;jettySize=auto;html=1;" edge="1" parent="1" source="06Gke2DZnT_ywNwkVbvP-48" target="06Gke2DZnT_ywNwkVbvP-54">
          <mxGeometry relative="1" as="geometry" />
        </mxCell>
        <mxCell id="06Gke2DZnT_ywNwkVbvP-58" value="Sim" style="edgeLabel;html=1;align=center;verticalAlign=middle;resizable=0;points=[];" vertex="1" connectable="0" parent="06Gke2DZnT_ywNwkVbvP-55">
          <mxGeometry x="0.1287" y="1" relative="1" as="geometry">
            <mxPoint x="1" as="offset" />
          </mxGeometry>
        </mxCell>
        <mxCell id="06Gke2DZnT_ywNwkVbvP-59" style="edgeStyle=orthogonalEdgeStyle;rounded=0;orthogonalLoop=1;jettySize=auto;html=1;entryX=1;entryY=0.5;entryDx=0;entryDy=0;" edge="1" parent="1" source="06Gke2DZnT_ywNwkVbvP-48" target="06Gke2DZnT_ywNwkVbvP-38">
          <mxGeometry relative="1" as="geometry">
            <Array as="points">
              <mxPoint x="413" y="754" />
            </Array>
          </mxGeometry>
        </mxCell>
        <mxCell id="06Gke2DZnT_ywNwkVbvP-60" value="Não" style="edgeLabel;html=1;align=center;verticalAlign=middle;resizable=0;points=[];" vertex="1" connectable="0" parent="06Gke2DZnT_ywNwkVbvP-59">
          <mxGeometry x="-0.2195" y="1" relative="1" as="geometry">
            <mxPoint as="offset" />
          </mxGeometry>
        </mxCell>
        <mxCell id="06Gke2DZnT_ywNwkVbvP-48" value="NumTotal=0" style="rhombus;whiteSpace=wrap;html=1;fillColor=#d5e8d4;strokeColor=#82b366;strokeWidth=4;shadow=1;" vertex="1" parent="1">
          <mxGeometry x="357" y="895" width="112.5" height="110" as="geometry" />
        </mxCell>
        <mxCell id="06Gke2DZnT_ywNwkVbvP-57" value="" style="edgeStyle=orthogonalEdgeStyle;rounded=0;orthogonalLoop=1;jettySize=auto;html=1;" edge="1" parent="1" source="06Gke2DZnT_ywNwkVbvP-54" target="06Gke2DZnT_ywNwkVbvP-56">
          <mxGeometry relative="1" as="geometry" />
        </mxCell>
        <mxCell id="06Gke2DZnT_ywNwkVbvP-54" value="Escrever &quot;A soma e igual a &quot;, Soma" style="shape=parallelogram;perimeter=parallelogramPerimeter;whiteSpace=wrap;html=1;fixedSize=1;fillColor=#dae8fc;strokeColor=#6c8ebf;strokeWidth=4;shadow=1;" vertex="1" parent="1">
          <mxGeometry x="510" y="920" width="180" height="60" as="geometry" />
        </mxCell>
        <mxCell id="06Gke2DZnT_ywNwkVbvP-56" value="Fim" style="ellipse;whiteSpace=wrap;html=1;fillColor=#fff2cc;strokeColor=#d6b656;strokeWidth=4;shadow=1;" vertex="1" parent="1">
          <mxGeometry x="530" y="1005" width="140" height="80" as="geometry" />
        </mxCell>
      </root>
    </mxGraphModel>
  </diagram>
</mxfile>
